<svg width="24" height="24" viewBox="0 0 24 24" xmlns="http://www.w3.org/2000/svg" xmlns:xlink="http://www.w3.org/1999/xlink" id="Trip-Multiple-Destination--Streamline-Streamline-3.0" overflow="hidden"><style>
.MsftOfcThm_Background1_Stroke_v2 {
 stroke:#FFFFFF; 
}
</style>
<defs></defs><path d="M10.949 0.5C12.9571 0.499448 14.5854 2.12689 14.586 4.135 14.586 4.13533 14.586 4.13567 14.586 4.136 14.586 5.736 12.286 8.819 11.342 10.012 11.1709 10.2288 10.8565 10.2658 10.6398 10.0948 10.609 10.0705 10.5813 10.0427 10.557 10.012 9.616 8.819 7.314 5.734 7.314 4.136 7.31345 2.12845 8.94044 0.500553 10.948 0.5 10.9483 0.5 10.9487 0.5 10.949 0.5Z" class="MsftOfcThm_Background1_Stroke_v2" stroke="#FFFFFF" stroke-linecap="round" stroke-linejoin="round" fill="none"/><path d="M12.314 4.136C12.3146 4.88932 11.7043 5.50045 10.951 5.501 10.1977 5.50155 9.58655 4.89132 9.586 4.138 9.58545 3.38468 10.1957 2.77355 10.949 2.773 11.7021 2.773 12.3129 3.38291 12.314 4.136Z" class="MsftOfcThm_Background1_Stroke_v2" stroke="#FFFFFF" stroke-linecap="round" stroke-linejoin="round" fill="none"/><path d="M19.949 7.5C21.7566 7.49945 23.2224 8.96437 23.223 10.772 23.223 10.7723 23.223 10.7727 23.223 10.773 23.223 12.19 21.213 14.903 20.343 16.011 20.1726 16.2283 19.8583 16.2664 19.641 16.096 19.6094 16.0712 19.5808 16.0427 19.556 16.011 18.686 14.903 16.677 12.19 16.677 10.773 16.6764 8.96592 18.1409 7.50055 19.948 7.5 19.9483 7.5 19.9487 7.5 19.949 7.5Z" class="MsftOfcThm_Background1_Stroke_v2" stroke="#FFFFFF" stroke-linecap="round" stroke-linejoin="round" fill="none"/><path d="M21.177 10.773C21.177 11.4507 20.6277 12 19.95 12 19.2723 12 18.723 11.4507 18.723 10.773 18.723 10.0957 19.2717 9.54655 19.949 9.546 20.6267 9.54545 21.1764 10.0943 21.177 10.772 21.177 10.7723 21.177 10.7727 21.177 10.773Z" class="MsftOfcThm_Background1_Stroke_v2" stroke="#FFFFFF" stroke-linecap="round" stroke-linejoin="round" fill="none"/><path d="M9.038 15.319C8.67 17.519 4.947 21.269 4.947 23.5 4.947 21.269 1.325 17.879 0.858 15.319 0.355528 13.2137 1.65485 11.0997 3.76012 10.5973 4.14848 10.5046 4.54873 10.4718 4.947 10.5 7.10409 10.3437 8.97945 11.9657 9.13574 14.1228 9.16482 14.5242 9.13185 14.9277 9.038 15.319Z" class="MsftOfcThm_Background1_Stroke_v2" stroke="#FFFFFF" stroke-linecap="round" stroke-linejoin="round" fill="none"/><path d="M6.82 14.407C6.82055 15.4414 5.98243 16.2804 4.948 16.281 3.91357 16.2816 3.07455 15.4434 3.074 14.409 3.07345 13.3746 3.91157 12.5356 4.946 12.535 4.94633 12.535 4.94667 12.535 4.947 12.535 5.98088 12.5344 6.81945 13.3721 6.82 14.406 6.82 14.4063 6.82 14.4067 6.82 14.407Z" class="MsftOfcThm_Background1_Stroke_v2" stroke="#FFFFFF" stroke-linecap="round" stroke-linejoin="round" fill="none"/><path d="M11.867 12 16.774 15.27" class="MsftOfcThm_Background1_Stroke_v2" stroke="#FFFFFF" stroke-linecap="round" stroke-linejoin="round" fill="none"/><path d="M7.502 22.31 17.449 17.667" class="MsftOfcThm_Background1_Stroke_v2" stroke="#FFFFFF" stroke-linecap="round" stroke-linejoin="round" fill="none"/></svg>