<svg width="24" height="24" viewBox="0 0 24 24" xmlns="http://www.w3.org/2000/svg" xmlns:xlink="http://www.w3.org/1999/xlink" id="Analytics-Graph-Bar-1--Streamline-Streamline-3.0" overflow="hidden"><style>
.MsftOfcThm_Background1_Stroke_v2 {
 stroke:#FFFFFF; 
}
</style>
<defs></defs><path d="M4.5 20C4.5 19.7239 4.27614 19.5 4 19.5L2 19.5C1.72386 19.5 1.5 19.7239 1.5 20L1.5 23.5 4.5 23.5Z" class="MsftOfcThm_Background1_Stroke_v2" stroke="#FFFFFF" stroke-linecap="round" stroke-linejoin="round" fill="none"/><path d="M10.5 15C10.5 14.7239 10.2761 14.5 10 14.5L8 14.5C7.72386 14.5 7.5 14.7239 7.5 15L7.5 23.5 10.5 23.5Z" class="MsftOfcThm_Background1_Stroke_v2" stroke="#FFFFFF" stroke-linecap="round" stroke-linejoin="round" fill="none"/><path d="M16.5 18C16.5 17.7239 16.2761 17.5 16 17.5L14 17.5C13.7239 17.5 13.5 17.7239 13.5 18L13.5 23.5 16.5 23.5Z" class="MsftOfcThm_Background1_Stroke_v2" stroke="#FFFFFF" stroke-linecap="round" stroke-linejoin="round" fill="none"/><path d="M22.5 10C22.5 9.72386 22.2761 9.5 22 9.5L20 9.5C19.7239 9.5 19.5 9.72386 19.5 10L19.5 23.5 22.5 23.5Z" class="MsftOfcThm_Background1_Stroke_v2" stroke="#FFFFFF" stroke-linecap="round" stroke-linejoin="round" fill="none"/><path d="M0.504 23.5 23.504 23.5" class="MsftOfcThm_Background1_Stroke_v2" stroke="#FFFFFF" stroke-linecap="round" stroke-linejoin="round" fill="none"/><path d="M3.918 8.586 6.59 5.914" class="MsftOfcThm_Background1_Stroke_v2" stroke="#FFFFFF" stroke-linecap="round" stroke-linejoin="round" fill="none"/><path d="M9.732 5.508 12.276 6.992" class="MsftOfcThm_Background1_Stroke_v2" stroke="#FFFFFF" stroke-linecap="round" stroke-linejoin="round" fill="none"/><path d="M15.577 6.764 19.431 3.736" class="MsftOfcThm_Background1_Stroke_v2" stroke="#FFFFFF" stroke-linecap="round" stroke-linejoin="round" fill="none"/><path d="M19.004 2.5C19.004 3.60457 19.8994 4.5 21.004 4.5 22.1086 4.5 23.004 3.60457 23.004 2.5 23.004 1.39543 22.1086 0.5 21.004 0.5 19.8994 0.5 19.004 1.39543 19.004 2.5" class="MsftOfcThm_Background1_Stroke_v2" stroke="#FFFFFF" stroke-linecap="round" stroke-linejoin="round" fill="none"/><path d="M12.004 8C12.004 9.10457 12.8994 10 14.004 10 15.1086 10 16.004 9.10457 16.004 8 16.004 6.89543 15.1086 6 14.004 6 12.8994 6 12.004 6.89543 12.004 8" class="MsftOfcThm_Background1_Stroke_v2" stroke="#FFFFFF" stroke-linecap="round" stroke-linejoin="round" fill="none"/><path d="M6.004 4.5C6.004 5.60457 6.89943 6.5 8.004 6.5 9.10857 6.5 10.004 5.60457 10.004 4.5 10.004 3.39543 9.10857 2.5 8.004 2.5 6.89943 2.5 6.004 3.39543 6.004 4.5" class="MsftOfcThm_Background1_Stroke_v2" stroke="#FFFFFF" stroke-linecap="round" stroke-linejoin="round" fill="none"/><path d="M0.504 10C0.504 11.1046 1.39943 12 2.504 12 3.60857 12 4.504 11.1046 4.504 10 4.504 8.89543 3.60857 8 2.504 8 1.39943 8 0.504 8.89543 0.504 10" class="MsftOfcThm_Background1_Stroke_v2" stroke="#FFFFFF" stroke-linecap="round" stroke-linejoin="round" fill="none"/></svg>